<svg xmlns="http://www.w3.org/2000/svg" xmlns:xlink="http://www.w3.org/1999/xlink" width="1024" zoomAndPan="magnify" viewBox="0 0 768 374.999991" height="500" preserveAspectRatio="xMidYMid meet" version="1.0"><defs><filter x="0%" y="0%" width="100%" height="100%" id="dc4dc4eb12"><feColorMatrix values="0 0 0 0 1 0 0 0 0 1 0 0 0 0 1 0 0 0 1 0" color-interpolation-filters="sRGB"/></filter><clipPath id="3610656955"><path d="M 331.1875 171.558594 L 331.375 171.558594 L 331.375 174.644531 L 331.1875 174.644531 Z M 331.1875 171.558594 " clip-rule="nonzero"/></clipPath><clipPath id="23403bf95b"><path d="M 331.191406 174.644531 C 331.230469 171.554688 331.277344 171.539062 331.300781 171.566406 C 331.460938 171.6875 331.300781 174.644531 331.300781 174.644531 " clip-rule="nonzero"/></clipPath><clipPath id="597527fd38"><path d="M 0.1875 0.558594 L 0.375 0.558594 L 0.375 3.644531 L 0.1875 3.644531 Z M 0.1875 0.558594 " clip-rule="nonzero"/></clipPath><clipPath id="e545aa5ced"><path d="M 0.191406 3.644531 C 0.230469 0.554688 0.277344 0.539062 0.300781 0.566406 C 0.460938 0.6875 0.300781 3.644531 0.300781 3.644531 " clip-rule="nonzero"/></clipPath><clipPath id="250d882d9d"><rect x="0" width="1" y="0" height="4"/></clipPath><clipPath id="3afa18ad3a"><path d="M 368.878906 174.433594 L 372.007812 174.433594 L 372.007812 175.019531 L 368.878906 175.019531 Z M 368.878906 174.433594 " clip-rule="nonzero"/></clipPath><clipPath id="a2818558c2"><path d="M 368.878906 174.910156 C 369.125 174.351562 371.664062 174.351562 371.933594 174.59375 C 372.019531 174.667969 372.03125 174.828125 371.957031 174.910156 C 371.738281 175.15625 368.878906 174.910156 368.878906 174.910156 " clip-rule="nonzero"/></clipPath><mask id="aac092905e"><g filter="url(#dc4dc4eb12)"><rect x="-76.8" width="921.6" fill="#000000" y="-37.499999" height="449.999989" fill-opacity="0.47"/></g></mask><clipPath id="59f811b114"><path d="M 0.878906 0.433594 L 4.007812 0.433594 L 4.007812 1.019531 L 0.878906 1.019531 Z M 0.878906 0.433594 " clip-rule="nonzero"/></clipPath><clipPath id="da6311b874"><path d="M 0.878906 0.910156 C 1.125 0.351562 3.664062 0.351562 3.933594 0.59375 C 4.019531 0.667969 4.03125 0.828125 3.957031 0.910156 C 3.738281 1.15625 0.878906 0.910156 0.878906 0.910156 " clip-rule="nonzero"/></clipPath><clipPath id="12798b8bd3"><rect x="0" width="5" y="0" height="2"/></clipPath><clipPath id="2bdc12297a"><path d="M 137.6875 15.507812 L 138.097656 15.507812 L 138.097656 15.789062 L 137.6875 15.789062 Z M 137.6875 15.507812 " clip-rule="nonzero"/></clipPath><clipPath id="c241a4efd6"><path d="M 138.074219 15.675781 C 137.324219 15.976562 137.925781 15.523438 137.925781 15.523438 " clip-rule="nonzero"/></clipPath><mask id="6d3bd50eec"><g filter="url(#dc4dc4eb12)"><rect x="-76.8" width="921.6" fill="#000000" y="-37.499999" height="449.999989" fill-opacity="0.5"/></g></mask><clipPath id="60d13a6e6a"><path d="M 0.6875 0.507812 L 1.097656 0.507812 L 1.097656 0.789062 L 0.6875 0.789062 Z M 0.6875 0.507812 " clip-rule="nonzero"/></clipPath><clipPath id="f97a91773a"><path d="M 1.074219 0.675781 C 0.324219 0.976562 0.925781 0.523438 0.925781 0.523438 " clip-rule="nonzero"/></clipPath><clipPath id="5642d5515f"><rect x="0" width="2" y="0" height="1"/></clipPath><clipPath id="c02308853a"><path d="M 183.816406 15.214844 L 184.175781 15.214844 L 184.175781 15.835938 L 183.816406 15.835938 Z M 183.816406 15.214844 " clip-rule="nonzero"/></clipPath><clipPath id="7f6f65b7d7"><path d="M 183.824219 15.226562 C 184.574219 15.898438 183.824219 15.824219 183.824219 15.824219 " clip-rule="nonzero"/></clipPath><mask id="0854e516f9"><g filter="url(#dc4dc4eb12)"><rect x="-76.8" width="921.6" fill="#000000" y="-37.499999" height="449.999989" fill-opacity="0.5"/></g></mask><clipPath id="4319bf278c"><path d="M 0.816406 0.214844 L 1.175781 0.214844 L 1.175781 0.835938 L 0.816406 0.835938 Z M 0.816406 0.214844 " clip-rule="nonzero"/></clipPath><clipPath id="3c5c207f97"><path d="M 0.824219 0.226562 C 1.574219 0.898438 0.824219 0.824219 0.824219 0.824219 " clip-rule="nonzero"/></clipPath><clipPath id="7f2cd4cd5e"><rect x="0" width="2" y="0" height="1"/></clipPath><clipPath id="3e31b4dad1"><path d="M 158.589844 29.230469 L 158.945312 29.230469 L 158.945312 29.511719 L 158.589844 29.511719 Z M 158.589844 29.230469 " clip-rule="nonzero"/></clipPath><clipPath id="60609d243b"><path d="M 158.925781 29.398438 C 158.25 29.699219 158.851562 29.25 158.851562 29.25 " clip-rule="nonzero"/></clipPath><mask id="fbff23e38e"><g filter="url(#dc4dc4eb12)"><rect x="-76.8" width="921.6" fill="#000000" y="-37.499999" height="449.999989" fill-opacity="0.5"/></g></mask><clipPath id="8767d95b76"><path d="M 0.589844 0.230469 L 0.945312 0.230469 L 0.945312 0.511719 L 0.589844 0.511719 Z M 0.589844 0.230469 " clip-rule="nonzero"/></clipPath><clipPath id="c3f48ea891"><path d="M 0.925781 0.398438 C 0.25 0.699219 0.851562 0.25 0.851562 0.25 " clip-rule="nonzero"/></clipPath><clipPath id="15acab4b81"><rect x="0" width="1" y="0" height="1"/></clipPath><clipPath id="d1489fed9f"><path d="M 0 0 L 768 0 L 768 28.992188 L 0 28.992188 Z M 0 0 " clip-rule="nonzero"/></clipPath><clipPath id="22427b0e39"><path d="M 7.273438 -13.050781 C 19.5 -9.074219 26.550781 -7.425781 33 -7.574219 C 40.273438 -7.726562 49.199219 -9.824219 56.023438 -12.300781 C 62.023438 -14.476562 66.375 -18.375 72 -20.925781 C 77.925781 -23.625 84.148438 -27.148438 90.601562 -27.898438 C 97.273438 -28.648438 104.699219 -27 111.375 -25.125 C 118.125 -23.324219 123.976562 -19.273438 130.875 -17.023438 C 138.226562 -14.550781 146.625 -12.675781 154.273438 -11.175781 C 161.625 -9.75 166.875 -8.25 175.949219 -8.25 C 191.25 -8.25 218.925781 -16.648438 237.976562 -16.949219 C 254.175781 -17.25 271.273438 -10.574219 283.125 -12.148438 C 291.226562 -13.199219 296.25 -17.851562 302.925781 -19.648438 C 309.300781 -21.449219 315.824219 -22.574219 322.199219 -23.023438 C 328.351562 -23.550781 332.773438 -23.324219 340.5 -22.648438 C 354 -21.449219 382.199219 -15.675781 396 -13.949219 C 404.023438 -12.976562 408.75 -12.226562 415.273438 -12.226562 C 421.949219 -12.226562 427.875 -12.75 435.675781 -14.25 C 446.773438 -16.273438 464.023438 -23.550781 475.199219 -25.125 C 483.148438 -26.25 489.300781 -26.175781 495.976562 -25.425781 C 502.273438 -24.75 508.050781 -22.800781 514.050781 -21 C 520.125 -19.125 525.976562 -15.523438 532.125 -14.398438 C 538.273438 -13.273438 543.523438 -13.425781 551.023438 -14.101562 C 562.351562 -15.148438 581.324219 -21.148438 593.324219 -22.351562 C 602.101562 -23.175781 609.226562 -23.625 616.273438 -22.5 C 622.726562 -21.523438 628.050781 -17.851562 634.199219 -16.574219 C 640.574219 -15.300781 647.398438 -15 653.925781 -14.925781 C 660.300781 -14.925781 666.824219 -15 672.976562 -16.273438 C 678.976562 -17.476562 684.074219 -21.226562 690.449219 -22.273438 C 697.425781 -23.550781 706.125 -23.925781 713.25 -22.574219 C 720 -21.300781 725.773438 -17.25 732.074219 -15 C 738.226562 -12.75 744.375 -9.226562 750.601562 -9 C 756.75 -8.773438 764.023438 -12.074219 769.125 -13.574219 C 772.800781 -14.625 775.949219 -18.148438 778.351562 -16.800781 C 783 -14.101562 788.476562 11.925781 785.25 18.523438 C 783.300781 22.648438 777.898438 23.476562 773.175781 24.898438 C 767.324219 26.699219 759.148438 27.226562 752.324219 27 C 745.648438 26.773438 738.824219 25.351562 732.601562 23.625 C 726.675781 21.976562 721.648438 18.523438 715.800781 16.949219 C 709.875 15.375 703.425781 13.648438 697.425781 14.101562 C 691.425781 14.476562 686.925781 18.375 679.726562 19.574219 C 669.074219 21.375 652.648438 21.824219 639.375 20.699219 C 626.25 19.574219 613.5 12.824219 600.601562 12.898438 C 587.851562 13.050781 573.074219 19.949219 562.5 21.300781 C 555.148438 22.199219 549.824219 22.050781 543.601562 21.898438 C 537.523438 21.675781 531.601562 21.523438 525.523438 20.324219 C 519.148438 19.050781 512.699219 15.976562 506.25 14.324219 C 499.875 12.675781 493.5 10.648438 487.125 10.574219 C 480.824219 10.425781 474.601562 12.226562 468.226562 13.726562 C 461.625 15.226562 455.023438 17.925781 448.273438 19.574219 C 441.523438 21.226562 434.773438 23.175781 427.726562 23.773438 C 420.226562 24.449219 411.675781 23.476562 404.398438 22.949219 C 397.949219 22.5 394.125 22.050781 386.25 21 C 371.851562 19.125 342.300781 9.75 324.75 11.324219 C 310.949219 12.601562 298.875 21.523438 288.75 24 C 281.625 25.648438 276.300781 27 270.226562 26.550781 C 264 26.023438 257.925781 21.976562 251.699219 20.851562 C 245.625 19.726562 240.675781 19.273438 233.324219 19.726562 C 222.226562 20.25 203.324219 25.726562 191.699219 26.773438 C 183.449219 27.601562 177.300781 27.523438 170.324219 27.148438 C 163.574219 26.851562 157.050781 25.949219 150.75 24.824219 C 144.601562 23.773438 138.976562 22.273438 132.976562 20.625 C 126.824219 18.976562 120.375 17.023438 114.226562 14.773438 C 108.074219 12.449219 103.050781 6.75 96.148438 6.898438 C 86.773438 7.050781 73.273438 19.199219 63.375 22.875 C 55.648438 25.726562 49.125 27.523438 42.074219 28.351562 C 35.25 29.25 28.800781 29.175781 21.601562 28.199219 C 13.199219 27.074219 -2.101562 27 -5.175781 21.148438 C -8.699219 14.398438 7.273438 -13.050781 7.273438 -13.050781 " clip-rule="nonzero"/></clipPath><clipPath id="73b1894e89"><path d="M 0 0 L 768 0 L 768 28.992188 L 0 28.992188 Z M 0 0 " clip-rule="nonzero"/></clipPath><clipPath id="503a663936"><path d="M 7.273438 -13.050781 C 19.5 -9.074219 26.550781 -7.425781 33 -7.574219 C 40.273438 -7.726562 49.199219 -9.824219 56.023438 -12.300781 C 62.023438 -14.476562 66.375 -18.375 72 -20.925781 C 77.925781 -23.625 84.148438 -27.148438 90.601562 -27.898438 C 97.273438 -28.648438 104.699219 -27 111.375 -25.125 C 118.125 -23.324219 123.976562 -19.273438 130.875 -17.023438 C 138.226562 -14.550781 146.625 -12.675781 154.273438 -11.175781 C 161.625 -9.75 166.875 -8.25 175.949219 -8.25 C 191.25 -8.25 218.925781 -16.648438 237.976562 -16.949219 C 254.175781 -17.25 271.273438 -10.574219 283.125 -12.148438 C 291.226562 -13.199219 296.25 -17.851562 302.925781 -19.648438 C 309.300781 -21.449219 315.824219 -22.574219 322.199219 -23.023438 C 328.351562 -23.550781 332.773438 -23.324219 340.5 -22.648438 C 354 -21.449219 382.199219 -15.675781 396 -13.949219 C 404.023438 -12.976562 408.75 -12.226562 415.273438 -12.226562 C 421.949219 -12.226562 427.875 -12.75 435.675781 -14.25 C 446.773438 -16.273438 464.023438 -23.550781 475.199219 -25.125 C 483.148438 -26.25 489.300781 -26.175781 495.976562 -25.425781 C 502.273438 -24.75 508.050781 -22.800781 514.050781 -21 C 520.125 -19.125 525.976562 -15.523438 532.125 -14.398438 C 538.273438 -13.273438 543.523438 -13.425781 551.023438 -14.101562 C 562.351562 -15.148438 581.324219 -21.148438 593.324219 -22.351562 C 602.101562 -23.175781 609.226562 -23.625 616.273438 -22.5 C 622.726562 -21.523438 628.050781 -17.851562 634.199219 -16.574219 C 640.574219 -15.300781 647.398438 -15 653.925781 -14.925781 C 660.300781 -14.925781 666.824219 -15 672.976562 -16.273438 C 678.976562 -17.476562 684.074219 -21.226562 690.449219 -22.273438 C 697.425781 -23.550781 706.125 -23.925781 713.25 -22.574219 C 720 -21.300781 725.773438 -17.25 732.074219 -15 C 738.226562 -12.75 744.375 -9.226562 750.601562 -9 C 756.75 -8.773438 764.023438 -12.074219 769.125 -13.574219 C 772.800781 -14.625 775.949219 -18.148438 778.351562 -16.800781 C 783 -14.101562 788.476562 11.925781 785.25 18.523438 C 783.300781 22.648438 777.898438 23.476562 773.175781 24.898438 C 767.324219 26.699219 759.148438 27.226562 752.324219 27 C 745.648438 26.773438 738.824219 25.351562 732.601562 23.625 C 726.675781 21.976562 721.648438 18.523438 715.800781 16.949219 C 709.875 15.375 703.425781 13.648438 697.425781 14.101562 C 691.425781 14.476562 686.925781 18.375 679.726562 19.574219 C 669.074219 21.375 652.648438 21.824219 639.375 20.699219 C 626.25 19.574219 613.5 12.824219 600.601562 12.898438 C 587.851562 13.050781 573.074219 19.949219 562.5 21.300781 C 555.148438 22.199219 549.824219 22.050781 543.601562 21.898438 C 537.523438 21.675781 531.601562 21.523438 525.523438 20.324219 C 519.148438 19.050781 512.699219 15.976562 506.25 14.324219 C 499.875 12.675781 493.5 10.648438 487.125 10.574219 C 480.824219 10.425781 474.601562 12.226562 468.226562 13.726562 C 461.625 15.226562 455.023438 17.925781 448.273438 19.574219 C 441.523438 21.226562 434.773438 23.175781 427.726562 23.773438 C 420.226562 24.449219 411.675781 23.476562 404.398438 22.949219 C 397.949219 22.5 394.125 22.050781 386.25 21 C 371.851562 19.125 342.300781 9.75 324.75 11.324219 C 310.949219 12.601562 298.875 21.523438 288.75 24 C 281.625 25.648438 276.300781 27 270.226562 26.550781 C 264 26.023438 257.925781 21.976562 251.699219 20.851562 C 245.625 19.726562 240.675781 19.273438 233.324219 19.726562 C 222.226562 20.25 203.324219 25.726562 191.699219 26.773438 C 183.449219 27.601562 177.300781 27.523438 170.324219 27.148438 C 163.574219 26.851562 157.050781 25.949219 150.75 24.824219 C 144.601562 23.773438 138.976562 22.273438 132.976562 20.625 C 126.824219 18.976562 120.375 17.023438 114.226562 14.773438 C 108.074219 12.449219 103.050781 6.75 96.148438 6.898438 C 86.773438 7.050781 73.273438 19.199219 63.375 22.875 C 55.648438 25.726562 49.125 27.523438 42.074219 28.351562 C 35.25 29.25 28.800781 29.175781 21.601562 28.199219 C 13.199219 27.074219 -2.101562 27 -5.175781 21.148438 C -8.699219 14.398438 7.273438 -13.050781 7.273438 -13.050781 " clip-rule="nonzero"/></clipPath><clipPath id="ce4449c025"><rect x="0" width="768" y="0" height="29"/></clipPath><clipPath id="a28b739738"><path d="M 0 330 L 768 330 L 768 375 L 0 375 Z M 0 330 " clip-rule="nonzero"/></clipPath><clipPath id="173b0a437e"><path d="M -9.449219 360 C 0.675781 351.148438 7.050781 345.300781 12.75 344.476562 C 18.523438 343.574219 25.125 347.023438 31.199219 348.976562 C 37.425781 351 43.5 356.699219 49.648438 356.324219 C 56.25 355.875 63.074219 348.75 69.601562 345.523438 C 75.675781 342.601562 81.074219 339 87.523438 337.726562 C 94.273438 336.375 102.375 337.050781 109.273438 338.023438 C 115.875 338.925781 122.023438 340.351562 128.101562 342.976562 C 134.550781 345.675781 140.398438 351.898438 146.851562 354.226562 C 152.699219 356.398438 158.699219 356.851562 164.851562 357 C 171.300781 357.226562 178.574219 357.074219 184.726562 355.050781 C 190.800781 353.023438 195.601562 346.351562 201.523438 345 C 207.226562 343.648438 212.324219 345.523438 219.523438 346.574219 C 230.550781 348.226562 249.449219 354.375 260.851562 355.050781 C 268.800781 355.574219 274.875 355.273438 281.101562 353.550781 C 287.023438 351.898438 291.601562 347.476562 297.523438 345.449219 C 303.976562 343.273438 311.550781 341.699219 318.601562 341.476562 C 325.574219 341.175781 333.523438 341.398438 339.675781 343.875 C 345.375 346.199219 348.75 352.351562 354.300781 355.273438 C 360.148438 358.351562 367.5 360.824219 374.023438 361.425781 C 380.101562 362.023438 386.398438 361.125 392.25 359.324219 C 398.25 357.523438 403.425781 353.324219 409.726562 350.550781 C 416.699219 347.476562 424.875 343.5 432.226562 341.851562 C 438.898438 340.273438 445.050781 340.050781 451.800781 340.199219 C 459.074219 340.351562 466.875 342.449219 474.300781 342.898438 C 481.351562 343.425781 488.476562 343.574219 495.300781 343.199219 C 501.75 342.898438 508.199219 342.898438 514.199219 341.175781 C 520.125 339.449219 525.148438 334.648438 531 332.851562 C 536.851562 330.976562 542.851562 329.773438 549.074219 330.074219 C 555.976562 330.375 563.773438 333.226562 570.601562 335.398438 C 577.050781 337.5 582.824219 340.949219 589.125 342.824219 C 595.273438 344.625 601.949219 347.476562 608.023438 346.574219 C 614.25 345.75 619.574219 339.449219 625.949219 337.351562 C 632.550781 335.101562 640.273438 333.601562 647.101562 333.601562 C 653.550781 333.601562 660.074219 334.574219 665.773438 336.898438 C 671.398438 339.226562 675.449219 345.976562 681.148438 347.625 C 686.925781 349.273438 692.625 347.699219 700.199219 346.800781 C 711.675781 345.449219 731.324219 338.175781 743.175781 338.550781 C 751.5 338.773438 757.574219 342.375 764.398438 343.800781 C 770.550781 345.074219 780.300781 348.074219 782.175781 346.875 C 782.851562 346.425781 782.550781 344.925781 782.699219 344.925781 C 783.300781 345 787.351562 376.125 782.101562 380.925781 C 778.199219 384.523438 768.074219 381.375 761.773438 379.574219 C 755.699219 377.851562 750.824219 370.949219 745.050781 370.648438 C 739.050781 370.351562 733.875 375.898438 726.226562 378.148438 C 715.273438 381.375 695.925781 386.625 685.050781 386.398438 C 677.851562 386.25 672.449219 384.675781 667.125 381.898438 C 661.875 379.125 658.726562 371.175781 653.25 369.601562 C 647.476562 367.949219 639.601562 371.398438 633.148438 372.898438 C 627 374.324219 622.273438 377.25 615.523438 378.449219 C 606.898438 379.875 594.300781 381 585.675781 379.425781 C 578.476562 378.074219 573.226562 373.648438 566.925781 371.398438 C 560.625 369.226562 555.300781 365.773438 547.875 366 C 537.074219 366.375 518.925781 380.398438 508.726562 379.726562 C 501.976562 379.273438 498.675781 372.226562 492.300781 371.476562 C 484.5 370.5 473.398438 377.101562 465 377.851562 C 457.949219 378.449219 451.800781 376.050781 445.351562 376.875 C 438.898438 377.625 432.449219 380.023438 426.226562 382.574219 C 419.851562 385.125 414 389.699219 407.550781 392.175781 C 401.101562 394.574219 394.273438 396.449219 387.601562 397.199219 C 381.074219 398.023438 374.476562 397.800781 367.875 396.898438 C 360.976562 395.925781 353.476562 394.648438 347.101562 391.425781 C 340.648438 388.199219 335.851562 379.273438 329.550781 377.324219 C 323.699219 375.601562 316.949219 377.625 310.875 379.199219 C 304.574219 380.851562 298.875 385.050781 292.425781 387.300781 C 285.675781 389.625 278.25 392.398438 271.425781 392.851562 C 265.125 393.226562 258.976562 391.5 252.824219 390.375 C 246.523438 389.25 240.148438 388.574219 234.148438 386.101562 C 227.773438 383.476562 221.699219 374.25 215.773438 374.699219 C 209.476562 375.226562 204.226562 387.601562 197.550781 390.300781 C 191.550781 392.773438 184.800781 391.351562 178.050781 391.574219 C 170.773438 391.800781 162.75 392.023438 155.398438 391.425781 C 148.273438 390.824219 140.851562 390.375 134.550781 387.976562 C 128.476562 385.648438 124.351562 380.101562 118.273438 377.550781 C 111.75 374.851562 103.199219 371.398438 96.601562 372.523438 C 90.300781 373.574219 85.574219 380.398438 79.425781 383.324219 C 72.898438 386.398438 65.25 389.398438 58.425781 390.449219 C 52.199219 391.425781 46.199219 391.726562 40.273438 390.226562 C 33.898438 388.574219 25.800781 379.648438 21.449219 380.324219 C 18.675781 380.773438 18.148438 386.398438 15.523438 386.398438 C 10.050781 386.398438 -9.449219 360 -9.449219 360 " clip-rule="nonzero"/></clipPath><clipPath id="fd2cafda83"><path d="M 0 0 L 768 0 L 768 45 L 0 45 Z M 0 0 " clip-rule="nonzero"/></clipPath><clipPath id="eeb96e716c"><path d="M -9.449219 30 C 0.675781 21.148438 7.050781 15.300781 12.75 14.476562 C 18.523438 13.574219 25.125 17.023438 31.199219 18.976562 C 37.425781 21 43.5 26.699219 49.648438 26.324219 C 56.25 25.875 63.074219 18.75 69.601562 15.523438 C 75.675781 12.601562 81.074219 9 87.523438 7.726562 C 94.273438 6.375 102.375 7.050781 109.273438 8.023438 C 115.875 8.925781 122.023438 10.351562 128.101562 12.976562 C 134.550781 15.675781 140.398438 21.898438 146.851562 24.226562 C 152.699219 26.398438 158.699219 26.851562 164.851562 27 C 171.300781 27.226562 178.574219 27.074219 184.726562 25.050781 C 190.800781 23.023438 195.601562 16.351562 201.523438 15 C 207.226562 13.648438 212.324219 15.523438 219.523438 16.574219 C 230.550781 18.226562 249.449219 24.375 260.851562 25.050781 C 268.800781 25.574219 274.875 25.273438 281.101562 23.550781 C 287.023438 21.898438 291.601562 17.476562 297.523438 15.449219 C 303.976562 13.273438 311.550781 11.699219 318.601562 11.476562 C 325.574219 11.175781 333.523438 11.398438 339.675781 13.875 C 345.375 16.199219 348.75 22.351562 354.300781 25.273438 C 360.148438 28.351562 367.5 30.824219 374.023438 31.425781 C 380.101562 32.023438 386.398438 31.125 392.25 29.324219 C 398.25 27.523438 403.425781 23.324219 409.726562 20.550781 C 416.699219 17.476562 424.875 13.5 432.226562 11.851562 C 438.898438 10.273438 445.050781 10.050781 451.800781 10.199219 C 459.074219 10.351562 466.875 12.449219 474.300781 12.898438 C 481.351562 13.425781 488.476562 13.574219 495.300781 13.199219 C 501.75 12.898438 508.199219 12.898438 514.199219 11.175781 C 520.125 9.449219 525.148438 4.648438 531 2.851562 C 536.851562 0.976562 542.851562 -0.226562 549.074219 0.0742188 C 555.976562 0.375 563.773438 3.226562 570.601562 5.398438 C 577.050781 7.5 582.824219 10.949219 589.125 12.824219 C 595.273438 14.625 601.949219 17.476562 608.023438 16.574219 C 614.25 15.75 619.574219 9.449219 625.949219 7.351562 C 632.550781 5.101562 640.273438 3.601562 647.101562 3.601562 C 653.550781 3.601562 660.074219 4.574219 665.773438 6.898438 C 671.398438 9.226562 675.449219 15.976562 681.148438 17.625 C 686.925781 19.273438 692.625 17.699219 700.199219 16.800781 C 711.675781 15.449219 731.324219 8.175781 743.175781 8.550781 C 751.5 8.773438 757.574219 12.375 764.398438 13.800781 C 770.550781 15.074219 780.300781 18.074219 782.175781 16.875 C 782.851562 16.425781 782.550781 14.925781 782.699219 14.925781 C 783.300781 15 787.351562 46.125 782.101562 50.925781 C 778.199219 54.523438 768.074219 51.375 761.773438 49.574219 C 755.699219 47.851562 750.824219 40.949219 745.050781 40.648438 C 739.050781 40.351562 733.875 45.898438 726.226562 48.148438 C 715.273438 51.375 695.925781 56.625 685.050781 56.398438 C 677.851562 56.25 672.449219 54.675781 667.125 51.898438 C 661.875 49.125 658.726562 41.175781 653.25 39.601562 C 647.476562 37.949219 639.601562 41.398438 633.148438 42.898438 C 627 44.324219 622.273438 47.25 615.523438 48.449219 C 606.898438 49.875 594.300781 51 585.675781 49.425781 C 578.476562 48.074219 573.226562 43.648438 566.925781 41.398438 C 560.625 39.226562 555.300781 35.773438 547.875 36 C 537.074219 36.375 518.925781 50.398438 508.726562 49.726562 C 501.976562 49.273438 498.675781 42.226562 492.300781 41.476562 C 484.5 40.5 473.398438 47.101562 465 47.851562 C 457.949219 48.449219 451.800781 46.050781 445.351562 46.875 C 438.898438 47.625 432.449219 50.023438 426.226562 52.574219 C 419.851562 55.125 414 59.699219 407.550781 62.175781 C 401.101562 64.574219 394.273438 66.449219 387.601562 67.199219 C 381.074219 68.023438 374.476562 67.800781 367.875 66.898438 C 360.976562 65.925781 353.476562 64.648438 347.101562 61.425781 C 340.648438 58.199219 335.851562 49.273438 329.550781 47.324219 C 323.699219 45.601562 316.949219 47.625 310.875 49.199219 C 304.574219 50.851562 298.875 55.050781 292.425781 57.300781 C 285.675781 59.625 278.25 62.398438 271.425781 62.851562 C 265.125 63.226562 258.976562 61.5 252.824219 60.375 C 246.523438 59.25 240.148438 58.574219 234.148438 56.101562 C 227.773438 53.476562 221.699219 44.25 215.773438 44.699219 C 209.476562 45.226562 204.226562 57.601562 197.550781 60.300781 C 191.550781 62.773438 184.800781 61.351562 178.050781 61.574219 C 170.773438 61.800781 162.75 62.023438 155.398438 61.425781 C 148.273438 60.824219 140.851562 60.375 134.550781 57.976562 C 128.476562 55.648438 124.351562 50.101562 118.273438 47.550781 C 111.75 44.851562 103.199219 41.398438 96.601562 42.523438 C 90.300781 43.574219 85.574219 50.398438 79.425781 53.324219 C 72.898438 56.398438 65.25 59.398438 58.425781 60.449219 C 52.199219 61.425781 46.199219 61.726562 40.273438 60.226562 C 33.898438 58.574219 25.800781 49.648438 21.449219 50.324219 C 18.675781 50.773438 18.148438 56.398438 15.523438 56.398438 C 10.050781 56.398438 -9.449219 30 -9.449219 30 " clip-rule="nonzero"/></clipPath><clipPath id="c17e25dda3"><rect x="0" width="768" y="0" height="45"/></clipPath><clipPath id="b92ec78926"><path d="M 56.347656 350.140625 L 768 350.140625 L 768 375 L 56.347656 375 Z M 56.347656 350.140625 " clip-rule="nonzero"/></clipPath><clipPath id="9d08bc031e"><path d="M 750.898438 386.25 C 709.574219 399.75 705.601562 402.601562 701.550781 404.023438 C 698.476562 405.148438 696 406.199219 693.148438 406.199219 C 690.375 406.199219 687.300781 405.523438 684.824219 404.25 C 682.273438 402.976562 679.726562 400.425781 678.300781 398.550781 C 677.25 397.273438 676.726562 396.300781 676.199219 394.726562 C 675.523438 392.550781 674.773438 388.949219 675.074219 386.175781 C 675.449219 383.476562 676.5 380.398438 678.074219 378.148438 C 679.648438 375.824219 681.074219 373.726562 684.449219 372.375 C 691.949219 369.300781 713.324219 373.5 725.175781 370.5 C 735.300781 367.875 746.699219 359.023438 751.875 357.375 C 753.824219 356.699219 754.5 356.625 756.148438 356.625 C 758.476562 356.699219 762.449219 357.449219 764.625 358.273438 C 766.125 358.949219 767.175781 359.699219 768.300781 360.601562 C 769.425781 361.5 770.398438 362.324219 771.300781 363.675781 C 772.648438 365.625 774.300781 368.851562 774.75 371.625 C 775.199219 374.324219 774.675781 377.925781 774.148438 380.175781 C 773.699219 381.824219 773.023438 382.949219 772.273438 384.148438 C 771.523438 385.351562 770.851562 386.398438 769.574219 387.523438 C 767.773438 389.023438 765.824219 390.898438 762.148438 391.875 C 753.976562 394.050781 731.699219 390.523438 719.699219 391.050781 C 710.773438 391.5 705.074219 392.550781 696.375 393.75 C 684.976562 395.25 670.726562 398.476562 657.300781 399.824219 C 643.050781 401.25 624.75 400.949219 613.199219 401.851562 C 605.625 402.449219 598.574219 403.648438 594.601562 403.875 C 592.648438 404.023438 591.898438 404.25 590.25 404.023438 C 587.925781 403.648438 584.398438 402.675781 582.074219 401.101562 C 579.75 399.601562 577.574219 397.199219 576.226562 394.800781 C 574.875 392.324219 574.199219 388.800781 574.050781 386.476562 C 573.898438 384.824219 574.125 383.550781 574.425781 382.125 C 574.800781 380.773438 575.101562 379.5 575.925781 378.074219 C 577.050781 376.050781 579.226562 373.125 581.476562 371.476562 C 583.726562 369.824219 586.125 369.148438 589.5 368.25 C 594.824219 366.824219 602.398438 366.75 610.800781 365.398438 C 622.875 363.449219 648.148438 357.148438 655.125 357.148438 C 657.300781 357.148438 657.824219 357.300781 659.398438 357.898438 C 661.574219 358.726562 664.800781 360.375 666.75 362.398438 C 668.699219 364.351562 670.351562 367.574219 671.175781 369.75 C 671.773438 371.324219 671.925781 372.601562 672 374.023438 C 672.074219 375.449219 672.148438 376.726562 671.699219 378.375 C 671.175781 380.625 669.523438 384.300781 668.175781 386.175781 C 667.273438 387.601562 666.449219 388.351562 665.101562 389.25 C 663.148438 390.601562 661.273438 391.949219 657.226562 392.773438 C 645.824219 395.175781 610.125 391.648438 588.898438 391.800781 C 570.300781 391.875 554.699219 392.324219 536.699219 393.074219 C 517.5 393.898438 487.050781 395.175781 477.148438 396.601562 C 473.773438 397.125 472.5 398.023438 470.476562 398.175781 C 468.898438 398.324219 467.773438 398.324219 466.125 397.949219 C 463.875 397.425781 460.199219 395.773438 458.324219 394.425781 C 456.898438 393.449219 456.148438 392.699219 455.25 391.351562 C 453.898438 389.398438 452.25 385.800781 451.648438 383.476562 C 451.273438 381.898438 451.199219 380.851562 451.425781 379.199219 C 451.726562 376.875 452.550781 373.351562 453.976562 370.949219 C 455.398438 368.550781 457.648438 366.300781 460.050781 364.875 C 462.449219 363.375 464.550781 362.699219 468.300781 362.25 C 475.5 361.5 487.050781 364.648438 500.773438 365.023438 C 524.699219 365.550781 587.925781 359.925781 599.023438 361.5 C 601.351562 361.875 601.726562 362.101562 603.148438 362.925781 C 605.25 364.050781 608.324219 366.523438 609.824219 368.324219 C 610.949219 369.601562 611.476562 370.5 612.074219 372.074219 C 612.824219 374.25 613.648438 377.773438 613.425781 380.550781 C 613.273438 383.324219 611.851562 386.699219 610.726562 388.726562 C 609.976562 390.226562 609.074219 391.125 608.023438 392.101562 C 606.976562 393.148438 606.074219 393.976562 604.574219 394.726562 C 602.476562 395.773438 600.074219 396.675781 596.324219 397.199219 C 588.375 398.175781 571.949219 396.148438 558.976562 396 C 544.875 395.851562 532.949219 395.773438 515.023438 396.226562 C 486.523438 397.050781 427.875 401.023438 404.476562 401.699219 C 393.675781 402 390.300781 402.449219 380.625 401.925781 C 365.550781 401.175781 345.226562 397.199219 322.875 395.398438 C 292.199219 392.925781 234.523438 390.75 213.449219 390.074219 C 204.898438 389.851562 202.726562 389.699219 195.375 389.925781 C 183.675781 390.226562 167.398438 392.773438 150.226562 392.773438 C 127.199219 392.773438 79.351562 389.773438 69.601562 387.523438 C 67.351562 387 66.976562 386.773438 65.625 385.875 C 63.601562 384.601562 60.824219 382.351562 59.324219 379.949219 C 57.75 377.625 56.699219 374.625 56.476562 371.851562 C 56.175781 369.074219 56.925781 365.550781 57.675781 363.300781 C 58.273438 361.726562 58.949219 360.675781 59.851562 359.550781 C 60.675781 358.351562 61.425781 357.375 62.773438 356.398438 C 64.648438 354.976562 68.25 353.175781 70.5 352.574219 C 72.074219 352.125 72.824219 352.050781 74.851562 352.125 C 79.5 352.351562 89.699219 355.5 98.023438 356.773438 C 107.773438 358.351562 124.726562 354.375 129.824219 360.449219 C 135.300781 366.976562 133.875 391.199219 127.648438 396.375 C 121.574219 401.476562 104.398438 394.199219 94.125 392.550781 C 85.273438 391.125 75.375 389.625 69.601562 387.523438 C 66.300781 386.25 64.125 385.199219 62.101562 383.324219 C 60.074219 381.375 58.273438 378.226562 57.375 376.125 C 56.773438 374.550781 56.476562 373.5 56.476562 371.851562 C 56.398438 369.523438 56.925781 365.550781 57.675781 363.300781 C 58.273438 361.726562 58.726562 360.824219 59.851562 359.550781 C 61.351562 357.75 63.898438 355.199219 66.375 354 C 68.925781 352.726562 70.574219 352.5 74.851562 352.125 C 87.300781 351.148438 127.800781 356.773438 149.699219 356.773438 C 166.800781 356.773438 177.375 354.148438 195.449219 353.925781 C 221.773438 353.550781 268.351562 356.101562 292.425781 357.300781 C 306.75 358.050781 313.875 358.425781 326.625 359.550781 C 342.675781 361.050781 367.425781 365.175781 381.226562 365.925781 C 389.625 366.375 392.023438 366.074219 401.550781 365.851562 C 424.050781 365.175781 485.476562 361.050781 514.800781 360.226562 C 533.398438 359.773438 546.226562 359.851562 560.398438 360.074219 C 572.625 360.226562 587.175781 360.300781 594.675781 361.199219 C 598.5 361.648438 600.976562 362.023438 603.148438 362.925781 C 604.726562 363.523438 605.625 364.050781 606.824219 365.175781 C 608.550781 366.75 610.949219 369.976562 612.074219 372.074219 C 612.75 373.574219 613.125 374.550781 613.273438 376.199219 C 613.5 378.523438 613.199219 382.574219 612.601562 384.824219 C 612.148438 386.398438 611.699219 387.375 610.726562 388.726562 C 609.375 390.675781 606.523438 393.449219 604.574219 394.726562 C 603.148438 395.625 602.699219 395.925781 600.601562 396.449219 C 594.148438 397.949219 574.726562 398.324219 559.800781 399 C 541.574219 399.898438 516.226562 401.476562 499.050781 400.949219 C 486.375 400.574219 471.898438 399.074219 466.199219 397.949219 C 464.101562 397.574219 463.5 397.425781 462 396.675781 C 459.976562 395.550781 456.976562 393.523438 455.25 391.351562 C 453.523438 389.175781 452.175781 386.25 451.648438 383.550781 C 451.199219 380.773438 451.351562 377.550781 452.175781 374.925781 C 453 372.226562 454.648438 369.523438 456.601562 367.5 C 458.625 365.550781 461.175781 364.199219 464.023438 363.074219 C 467.175781 361.800781 469.726562 361.425781 474.824219 360.675781 C 486.824219 359.023438 516.148438 357.898438 535.800781 357.074219 C 554.175781 356.324219 572.925781 355.949219 589.050781 355.800781 C 602.476562 355.648438 614.476562 355.648438 626.101562 355.949219 C 636.375 356.175781 648.449219 355.949219 655.125 357.148438 C 658.726562 357.75 660.976562 358.273438 663.375 359.699219 C 665.699219 361.125 668.101562 363.824219 669.449219 365.773438 C 670.351562 367.125 670.800781 368.101562 671.175781 369.75 C 671.773438 372 672.226562 375.601562 671.699219 378.300781 C 671.25 381.074219 669.523438 384.300781 668.175781 386.175781 C 667.273438 387.523438 666.449219 388.351562 665.101562 389.25 C 663.148438 390.601562 660.976562 391.574219 657.226562 392.773438 C 649.050781 395.398438 627.75 399.074219 616.199219 401.023438 C 607.875 402.375 600.148438 403.800781 594.601562 403.875 C 591.074219 403.949219 588.226562 403.726562 585.976562 403.050781 C 584.398438 402.601562 583.273438 401.925781 582.074219 401.101562 C 580.875 400.351562 579.824219 399.601562 578.773438 398.324219 C 577.351562 396.523438 575.398438 393 574.648438 390.75 C 574.125 389.175781 573.976562 388.125 574.050781 386.476562 C 574.125 384.148438 574.648438 380.550781 575.925781 378.074219 C 577.125 375.523438 579.675781 372.976562 581.476562 371.476562 C 582.75 370.425781 583.726562 369.976562 585.300781 369.375 C 587.324219 368.625 589.648438 368.25 592.648438 367.726562 C 597.449219 366.976562 604.5 366.300781 611.324219 365.925781 C 619.5 365.398438 627.523438 366 638.550781 365.175781 C 656.101562 363.75 688.875 357.675781 705.976562 356.175781 C 716.324219 355.273438 723.074219 354.824219 731.101562 355.125 C 738.375 355.351562 746.476562 357.226562 751.875 357.375 C 755.398438 357.449219 758.175781 356.625 760.5 356.925781 C 762.148438 357.148438 763.273438 357.675781 764.625 358.273438 C 765.898438 358.875 767.023438 359.476562 768.300781 360.601562 C 770.023438 362.175781 772.425781 364.875 773.550781 367.425781 C 774.601562 369.976562 775.125 373.199219 774.976562 375.976562 C 774.75 378.75 773.773438 381.75 772.273438 384.148438 C 770.773438 386.476562 768.675781 388.199219 766.125 390.148438 C 762.75 392.773438 758.476562 395.398438 753.300781 397.800781 C 746.25 400.949219 736.125 405.375 727.351562 406.425781 C 718.875 407.398438 707.773438 403.574219 701.550781 404.023438 C 697.949219 404.324219 696 406.199219 693.148438 406.199219 C 690.375 406.199219 686.925781 405.148438 684.824219 404.25 C 683.25 403.574219 682.351562 402.976562 681.226562 401.773438 C 679.5 400.125 677.25 396.898438 676.199219 394.726562 C 675.523438 393.226562 675.300781 392.175781 675.148438 390.523438 C 675 388.199219 675.148438 384.601562 676.125 381.976562 C 677.101562 379.351562 679.273438 376.5 680.925781 374.851562 C 682.125 373.648438 682.800781 373.351562 684.449219 372.375 C 687.898438 370.351562 693.976562 367.351562 700.726562 364.648438 C 711.074219 360.449219 732.824219 346.800781 741.074219 351.226562 C 748.800781 355.273438 750.898438 386.25 750.898438 386.25 " clip-rule="nonzero"/></clipPath><clipPath id="9a5f11b1cb"><path d="M 0.347656 0.140625 L 712 0.140625 L 712 25 L 0.347656 25 Z M 0.347656 0.140625 " clip-rule="nonzero"/></clipPath><clipPath id="e8045e1637"><path d="M 694.898438 36.25 C 653.574219 49.75 649.601562 52.601562 645.550781 54.023438 C 642.476562 55.148438 640 56.199219 637.148438 56.199219 C 634.375 56.199219 631.300781 55.523438 628.824219 54.25 C 626.273438 52.976562 623.726562 50.425781 622.300781 48.550781 C 621.25 47.273438 620.726562 46.300781 620.199219 44.726562 C 619.523438 42.550781 618.773438 38.949219 619.074219 36.175781 C 619.449219 33.476562 620.5 30.398438 622.074219 28.148438 C 623.648438 25.824219 625.074219 23.726562 628.449219 22.375 C 635.949219 19.300781 657.324219 23.5 669.175781 20.5 C 679.300781 17.875 690.699219 9.023438 695.875 7.375 C 697.824219 6.699219 698.5 6.625 700.148438 6.625 C 702.476562 6.699219 706.449219 7.449219 708.625 8.273438 C 710.125 8.949219 711.175781 9.699219 712.300781 10.601562 C 713.425781 11.5 714.398438 12.324219 715.300781 13.675781 C 716.648438 15.625 718.300781 18.851562 718.75 21.625 C 719.199219 24.324219 718.675781 27.925781 718.148438 30.175781 C 717.699219 31.824219 717.023438 32.949219 716.273438 34.148438 C 715.523438 35.351562 714.851562 36.398438 713.574219 37.523438 C 711.773438 39.023438 709.824219 40.898438 706.148438 41.875 C 697.976562 44.050781 675.699219 40.523438 663.699219 41.050781 C 654.773438 41.5 649.074219 42.550781 640.375 43.75 C 628.976562 45.25 614.726562 48.476562 601.300781 49.824219 C 587.050781 51.25 568.75 50.949219 557.199219 51.851562 C 549.625 52.449219 542.574219 53.648438 538.601562 53.875 C 536.648438 54.023438 535.898438 54.25 534.25 54.023438 C 531.925781 53.648438 528.398438 52.675781 526.074219 51.101562 C 523.75 49.601562 521.574219 47.199219 520.226562 44.800781 C 518.875 42.324219 518.199219 38.800781 518.050781 36.476562 C 517.898438 34.824219 518.125 33.550781 518.425781 32.125 C 518.800781 30.773438 519.101562 29.5 519.925781 28.074219 C 521.050781 26.050781 523.226562 23.125 525.476562 21.476562 C 527.726562 19.824219 530.125 19.148438 533.5 18.25 C 538.824219 16.824219 546.398438 16.75 554.800781 15.398438 C 566.875 13.449219 592.148438 7.148438 599.125 7.148438 C 601.300781 7.148438 601.824219 7.300781 603.398438 7.898438 C 605.574219 8.726562 608.800781 10.375 610.75 12.398438 C 612.699219 14.351562 614.351562 17.574219 615.175781 19.75 C 615.773438 21.324219 615.925781 22.601562 616 24.023438 C 616.074219 25.449219 616.148438 26.726562 615.699219 28.375 C 615.175781 30.625 613.523438 34.300781 612.175781 36.175781 C 611.273438 37.601562 610.449219 38.351562 609.101562 39.25 C 607.148438 40.601562 605.273438 41.949219 601.226562 42.773438 C 589.824219 45.175781 554.125 41.648438 532.898438 41.800781 C 514.300781 41.875 498.699219 42.324219 480.699219 43.074219 C 461.5 43.898438 431.050781 45.175781 421.148438 46.601562 C 417.773438 47.125 416.5 48.023438 414.476562 48.175781 C 412.898438 48.324219 411.773438 48.324219 410.125 47.949219 C 407.875 47.425781 404.199219 45.773438 402.324219 44.425781 C 400.898438 43.449219 400.148438 42.699219 399.25 41.351562 C 397.898438 39.398438 396.25 35.800781 395.648438 33.476562 C 395.273438 31.898438 395.199219 30.851562 395.425781 29.199219 C 395.726562 26.875 396.550781 23.351562 397.976562 20.949219 C 399.398438 18.550781 401.648438 16.300781 404.050781 14.875 C 406.449219 13.375 408.550781 12.699219 412.300781 12.25 C 419.5 11.5 431.050781 14.648438 444.773438 15.023438 C 468.699219 15.550781 531.925781 9.925781 543.023438 11.5 C 545.351562 11.875 545.726562 12.101562 547.148438 12.925781 C 549.25 14.050781 552.324219 16.523438 553.824219 18.324219 C 554.949219 19.601562 555.476562 20.5 556.074219 22.074219 C 556.824219 24.25 557.648438 27.773438 557.425781 30.550781 C 557.273438 33.324219 555.851562 36.699219 554.726562 38.726562 C 553.976562 40.226562 553.074219 41.125 552.023438 42.101562 C 550.976562 43.148438 550.074219 43.976562 548.574219 44.726562 C 546.476562 45.773438 544.074219 46.675781 540.324219 47.199219 C 532.375 48.175781 515.949219 46.148438 502.976562 46 C 488.875 45.851562 476.949219 45.773438 459.023438 46.226562 C 430.523438 47.050781 371.875 51.023438 348.476562 51.699219 C 337.675781 52 334.300781 52.449219 324.625 51.925781 C 309.550781 51.175781 289.226562 47.199219 266.875 45.398438 C 236.199219 42.925781 178.523438 40.75 157.449219 40.074219 C 148.898438 39.851562 146.726562 39.699219 139.375 39.925781 C 127.675781 40.226562 111.398438 42.773438 94.226562 42.773438 C 71.199219 42.773438 23.351562 39.773438 13.601562 37.523438 C 11.351562 37 10.976562 36.773438 9.625 35.875 C 7.601562 34.601562 4.824219 32.351562 3.324219 29.949219 C 1.75 27.625 0.699219 24.625 0.476562 21.851562 C 0.175781 19.074219 0.925781 15.550781 1.675781 13.300781 C 2.273438 11.726562 2.949219 10.675781 3.851562 9.550781 C 4.675781 8.351562 5.425781 7.375 6.773438 6.398438 C 8.648438 4.976562 12.25 3.175781 14.5 2.574219 C 16.074219 2.125 16.824219 2.050781 18.851562 2.125 C 23.5 2.351562 33.699219 5.5 42.023438 6.773438 C 51.773438 8.351562 68.726562 4.375 73.824219 10.449219 C 79.300781 16.976562 77.875 41.199219 71.648438 46.375 C 65.574219 51.476562 48.398438 44.199219 38.125 42.550781 C 29.273438 41.125 19.375 39.625 13.601562 37.523438 C 10.300781 36.25 8.125 35.199219 6.101562 33.324219 C 4.074219 31.375 2.273438 28.226562 1.375 26.125 C 0.773438 24.550781 0.476562 23.5 0.476562 21.851562 C 0.398438 19.523438 0.925781 15.550781 1.675781 13.300781 C 2.273438 11.726562 2.726562 10.824219 3.851562 9.550781 C 5.351562 7.75 7.898438 5.199219 10.375 4 C 12.925781 2.726562 14.574219 2.5 18.851562 2.125 C 31.300781 1.148438 71.800781 6.773438 93.699219 6.773438 C 110.800781 6.773438 121.375 4.148438 139.449219 3.925781 C 165.773438 3.550781 212.351562 6.101562 236.425781 7.300781 C 250.75 8.050781 257.875 8.425781 270.625 9.550781 C 286.675781 11.050781 311.425781 15.175781 325.226562 15.925781 C 333.625 16.375 336.023438 16.074219 345.550781 15.851562 C 368.050781 15.175781 429.476562 11.050781 458.800781 10.226562 C 477.398438 9.773438 490.226562 9.851562 504.398438 10.074219 C 516.625 10.226562 531.175781 10.300781 538.675781 11.199219 C 542.5 11.648438 544.976562 12.023438 547.148438 12.925781 C 548.726562 13.523438 549.625 14.050781 550.824219 15.175781 C 552.550781 16.75 554.949219 19.976562 556.074219 22.074219 C 556.75 23.574219 557.125 24.550781 557.273438 26.199219 C 557.5 28.523438 557.199219 32.574219 556.601562 34.824219 C 556.148438 36.398438 555.699219 37.375 554.726562 38.726562 C 553.375 40.675781 550.523438 43.449219 548.574219 44.726562 C 547.148438 45.625 546.699219 45.925781 544.601562 46.449219 C 538.148438 47.949219 518.726562 48.324219 503.800781 49 C 485.574219 49.898438 460.226562 51.476562 443.050781 50.949219 C 430.375 50.574219 415.898438 49.074219 410.199219 47.949219 C 408.101562 47.574219 407.5 47.425781 406 46.675781 C 403.976562 45.550781 400.976562 43.523438 399.25 41.351562 C 397.523438 39.175781 396.175781 36.25 395.648438 33.550781 C 395.199219 30.773438 395.351562 27.550781 396.175781 24.925781 C 397 22.226562 398.648438 19.523438 400.601562 17.5 C 402.625 15.550781 405.175781 14.199219 408.023438 13.074219 C 411.175781 11.800781 413.726562 11.425781 418.824219 10.675781 C 430.824219 9.023438 460.148438 7.898438 479.800781 7.074219 C 498.175781 6.324219 516.925781 5.949219 533.050781 5.800781 C 546.476562 5.648438 558.476562 5.648438 570.101562 5.949219 C 580.375 6.175781 592.449219 5.949219 599.125 7.148438 C 602.726562 7.75 604.976562 8.273438 607.375 9.699219 C 609.699219 11.125 612.101562 13.824219 613.449219 15.773438 C 614.351562 17.125 614.800781 18.101562 615.175781 19.75 C 615.773438 22 616.226562 25.601562 615.699219 28.300781 C 615.25 31.074219 613.523438 34.300781 612.175781 36.175781 C 611.273438 37.523438 610.449219 38.351562 609.101562 39.25 C 607.148438 40.601562 604.976562 41.574219 601.226562 42.773438 C 593.050781 45.398438 571.75 49.074219 560.199219 51.023438 C 551.875 52.375 544.148438 53.800781 538.601562 53.875 C 535.074219 53.949219 532.226562 53.726562 529.976562 53.050781 C 528.398438 52.601562 527.273438 51.925781 526.074219 51.101562 C 524.875 50.351562 523.824219 49.601562 522.773438 48.324219 C 521.351562 46.523438 519.398438 43 518.648438 40.75 C 518.125 39.175781 517.976562 38.125 518.050781 36.476562 C 518.125 34.148438 518.648438 30.550781 519.925781 28.074219 C 521.125 25.523438 523.675781 22.976562 525.476562 21.476562 C 526.75 20.425781 527.726562 19.976562 529.300781 19.375 C 531.324219 18.625 533.648438 18.25 536.648438 17.726562 C 541.449219 16.976562 548.5 16.300781 555.324219 15.925781 C 563.5 15.398438 571.523438 16 582.550781 15.175781 C 600.101562 13.75 632.875 7.675781 649.976562 6.175781 C 660.324219 5.273438 667.074219 4.824219 675.101562 5.125 C 682.375 5.351562 690.476562 7.226562 695.875 7.375 C 699.398438 7.449219 702.175781 6.625 704.5 6.925781 C 706.148438 7.148438 707.273438 7.675781 708.625 8.273438 C 709.898438 8.875 711.023438 9.476562 712.300781 10.601562 C 714.023438 12.175781 716.425781 14.875 717.550781 17.425781 C 718.601562 19.976562 719.125 23.199219 718.976562 25.976562 C 718.75 28.75 717.773438 31.75 716.273438 34.148438 C 714.773438 36.476562 712.675781 38.199219 710.125 40.148438 C 706.75 42.773438 702.476562 45.398438 697.300781 47.800781 C 690.25 50.949219 680.125 55.375 671.351562 56.425781 C 662.875 57.398438 651.773438 53.574219 645.550781 54.023438 C 641.949219 54.324219 640 56.199219 637.148438 56.199219 C 634.375 56.199219 630.925781 55.148438 628.824219 54.25 C 627.25 53.574219 626.351562 52.976562 625.226562 51.773438 C 623.5 50.125 621.25 46.898438 620.199219 44.726562 C 619.523438 43.226562 619.300781 42.175781 619.148438 40.523438 C 619 38.199219 619.148438 34.601562 620.125 31.976562 C 621.101562 29.351562 623.273438 26.5 624.925781 24.851562 C 626.125 23.648438 626.800781 23.351562 628.449219 22.375 C 631.898438 20.351562 637.976562 17.351562 644.726562 14.648438 C 655.074219 10.449219 676.824219 -3.199219 685.074219 1.226562 C 692.800781 5.273438 694.898438 36.25 694.898438 36.25 " clip-rule="nonzero"/></clipPath><clipPath id="0b7def8293"><rect x="0" width="712" y="0" height="25"/></clipPath></defs><rect x="-76.8" width="921.6" fill="#ffffff" y="-37.499999" height="449.999989" fill-opacity="1"/><rect x="-76.8" width="921.6" fill="#e4c6ba" y="-37.499999" height="449.999989" fill-opacity="1"/><g clip-path="url(#3610656955)"><g clip-path="url(#23403bf95b)"><g transform="matrix(1, 0, 0, 1, 331, 171)"><g clip-path="url(#250d882d9d)"><g clip-path="url(#597527fd38)"><g clip-path="url(#e545aa5ced)"><path fill="#ffffff" d="M -0.296875 0.078125 L 0.800781 0.078125 L 0.800781 4.144531 L -0.296875 4.144531 Z M -0.296875 0.078125 " fill-opacity="1" fill-rule="nonzero"/></g></g></g></g></g></g><g clip-path="url(#3afa18ad3a)"><g clip-path="url(#a2818558c2)"><g mask="url(#aac092905e)"><g transform="matrix(1, 0, 0, 1, 368, 174)"><g clip-path="url(#12798b8bd3)"><g clip-path="url(#59f811b114)"><g clip-path="url(#da6311b874)"><path fill="#ffffff" d="M 0.390625 0.105469 L 4.457031 0.105469 L 4.457031 1.398438 L 0.390625 1.398438 Z M 0.390625 0.105469 " fill-opacity="1" fill-rule="nonzero"/></g></g></g></g></g></g></g><g clip-path="url(#2bdc12297a)"><g clip-path="url(#c241a4efd6)"><g mask="url(#6d3bd50eec)"><g transform="matrix(1, 0, 0, 1, 137, 15)"><g clip-path="url(#5642d5515f)"><g clip-path="url(#60d13a6e6a)"><g clip-path="url(#f97a91773a)"><rect x="-305.96" width="1105.92" fill="#ffffff" height="539.999987" y="-97.499998" fill-opacity="1"/></g></g></g></g></g></g></g><g clip-path="url(#c02308853a)"><g clip-path="url(#7f6f65b7d7)"><g mask="url(#0854e516f9)"><g transform="matrix(1, 0, 0, 1, 183, 15)"><g clip-path="url(#7f2cd4cd5e)"><g clip-path="url(#4319bf278c)"><g clip-path="url(#3c5c207f97)"><rect x="-351.96" width="1105.92" fill="#ffffff" height="539.999987" y="-97.499998" fill-opacity="1"/></g></g></g></g></g></g></g><g clip-path="url(#3e31b4dad1)"><g clip-path="url(#60609d243b)"><g mask="url(#fbff23e38e)"><g transform="matrix(1, 0, 0, 1, 158, 29)"><g clip-path="url(#15acab4b81)"><g clip-path="url(#8767d95b76)"><g clip-path="url(#c3f48ea891)"><rect x="-326.96" width="1105.92" fill="#ffffff" height="539.999987" y="-111.499998" fill-opacity="1"/></g></g></g></g></g></g></g><g clip-path="url(#d1489fed9f)"><g clip-path="url(#22427b0e39)"><g transform="matrix(1, 0, 0, 1, 0, 0)"><g clip-path="url(#ce4449c025)"><g clip-path="url(#73b1894e89)"><g clip-path="url(#503a663936)"><rect x="-168.96" width="1105.92" fill="#ffffff" height="539.999987" y="-82.499998" fill-opacity="1"/></g></g></g></g></g></g><g clip-path="url(#a28b739738)"><g clip-path="url(#173b0a437e)"><g transform="matrix(1, 0, 0, 1, 0, 330)"><g clip-path="url(#c17e25dda3)"><g clip-path="url(#fd2cafda83)"><g clip-path="url(#eeb96e716c)"><rect x="-168.96" width="1105.92" fill="#ffffff" height="539.999987" y="-412.499998" fill-opacity="1"/></g></g></g></g></g></g><g clip-path="url(#b92ec78926)"><g clip-path="url(#9d08bc031e)"><g transform="matrix(1, 0, 0, 1, 56, 350)"><g clip-path="url(#0b7def8293)"><g clip-path="url(#9a5f11b1cb)"><g clip-path="url(#e8045e1637)"><rect x="-224.96" width="1105.92" fill="#ffffff" height="539.999987" y="-432.499998" fill-opacity="1"/></g></g></g></g></g></g></svg>